<mxfile host="app.diagrams.net" modified="2022-09-02T15:56:47.033Z" agent="5.0 (Windows)" etag="x1HN5sM5muidp1fTcGAx" version="20.1.2" type="github">
  <diagram id="C5RBs43oDa-KdzZeNtuy" name="Page-1">
    <mxGraphModel dx="1278" dy="528" grid="1" gridSize="10" guides="1" tooltips="1" connect="1" arrows="1" fold="1" page="1" pageScale="1" pageWidth="827" pageHeight="1169" math="0" shadow="0">
      <root>
        <mxCell id="WIyWlLk6GJQsqaUBKTNV-0" />
        <mxCell id="WIyWlLk6GJQsqaUBKTNV-1" parent="WIyWlLk6GJQsqaUBKTNV-0" />
        <mxCell id="eRM0PGZUXul2aLHy9KlM-10" style="edgeStyle=orthogonalEdgeStyle;rounded=0;orthogonalLoop=1;jettySize=auto;html=1;" parent="WIyWlLk6GJQsqaUBKTNV-1" source="eRM0PGZUXul2aLHy9KlM-1" target="eRM0PGZUXul2aLHy9KlM-2" edge="1">
          <mxGeometry relative="1" as="geometry" />
        </mxCell>
        <mxCell id="eRM0PGZUXul2aLHy9KlM-1" value="Initate transaction" style="rounded=1;whiteSpace=wrap;html=1;" parent="WIyWlLk6GJQsqaUBKTNV-1" vertex="1">
          <mxGeometry x="635" y="80" width="120" height="60" as="geometry" />
        </mxCell>
        <mxCell id="eRM0PGZUXul2aLHy9KlM-12" style="edgeStyle=orthogonalEdgeStyle;rounded=0;orthogonalLoop=1;jettySize=auto;html=1;entryX=0.5;entryY=0;entryDx=0;entryDy=0;" parent="WIyWlLk6GJQsqaUBKTNV-1" source="eRM0PGZUXul2aLHy9KlM-2" target="eRM0PGZUXul2aLHy9KlM-6" edge="1">
          <mxGeometry relative="1" as="geometry">
            <mxPoint x="820" y="240" as="targetPoint" />
          </mxGeometry>
        </mxCell>
        <mxCell id="eRM0PGZUXul2aLHy9KlM-13" style="edgeStyle=orthogonalEdgeStyle;rounded=0;orthogonalLoop=1;jettySize=auto;html=1;entryX=0.5;entryY=0;entryDx=0;entryDy=0;" parent="WIyWlLk6GJQsqaUBKTNV-1" source="eRM0PGZUXul2aLHy9KlM-2" target="eRM0PGZUXul2aLHy9KlM-3" edge="1">
          <mxGeometry relative="1" as="geometry" />
        </mxCell>
        <mxCell id="eRM0PGZUXul2aLHy9KlM-2" value="Verification" style="rhombus;whiteSpace=wrap;html=1;" parent="WIyWlLk6GJQsqaUBKTNV-1" vertex="1">
          <mxGeometry x="642.5" y="190" width="105" height="100" as="geometry" />
        </mxCell>
        <mxCell id="eRM0PGZUXul2aLHy9KlM-14" style="edgeStyle=orthogonalEdgeStyle;rounded=0;orthogonalLoop=1;jettySize=auto;html=1;" parent="WIyWlLk6GJQsqaUBKTNV-1" source="eRM0PGZUXul2aLHy9KlM-3" target="eRM0PGZUXul2aLHy9KlM-6" edge="1">
          <mxGeometry relative="1" as="geometry" />
        </mxCell>
        <mxCell id="eRM0PGZUXul2aLHy9KlM-15" style="edgeStyle=orthogonalEdgeStyle;rounded=0;orthogonalLoop=1;jettySize=auto;html=1;entryX=0.438;entryY=0;entryDx=0;entryDy=0;entryPerimeter=0;" parent="WIyWlLk6GJQsqaUBKTNV-1" source="eRM0PGZUXul2aLHy9KlM-3" target="eRM0PGZUXul2aLHy9KlM-4" edge="1">
          <mxGeometry relative="1" as="geometry" />
        </mxCell>
        <mxCell id="eRM0PGZUXul2aLHy9KlM-3" value="Transfer to smart contract" style="rhombus;whiteSpace=wrap;html=1;" parent="WIyWlLk6GJQsqaUBKTNV-1" vertex="1">
          <mxGeometry x="637.5" y="330" width="115" height="110" as="geometry" />
        </mxCell>
        <mxCell id="eRM0PGZUXul2aLHy9KlM-18" style="edgeStyle=orthogonalEdgeStyle;rounded=0;orthogonalLoop=1;jettySize=auto;html=1;" parent="WIyWlLk6GJQsqaUBKTNV-1" source="eRM0PGZUXul2aLHy9KlM-4" edge="1">
          <mxGeometry relative="1" as="geometry">
            <mxPoint x="702.5" y="610" as="targetPoint" />
          </mxGeometry>
        </mxCell>
        <mxCell id="eRM0PGZUXul2aLHy9KlM-21" style="edgeStyle=orthogonalEdgeStyle;rounded=0;orthogonalLoop=1;jettySize=auto;html=1;entryX=0.5;entryY=1;entryDx=0;entryDy=0;" parent="WIyWlLk6GJQsqaUBKTNV-1" source="eRM0PGZUXul2aLHy9KlM-4" target="eRM0PGZUXul2aLHy9KlM-6" edge="1">
          <mxGeometry relative="1" as="geometry">
            <mxPoint x="890" y="520" as="targetPoint" />
          </mxGeometry>
        </mxCell>
        <mxCell id="eRM0PGZUXul2aLHy9KlM-4" value="Mining on the net-1" style="rounded=1;whiteSpace=wrap;html=1;" parent="WIyWlLk6GJQsqaUBKTNV-1" vertex="1">
          <mxGeometry x="642.5" y="490" width="120" height="60" as="geometry" />
        </mxCell>
        <mxCell id="eRM0PGZUXul2aLHy9KlM-6" value="Terminate transaction" style="rounded=1;whiteSpace=wrap;html=1;" parent="WIyWlLk6GJQsqaUBKTNV-1" vertex="1">
          <mxGeometry x="827" y="355" width="120" height="60" as="geometry" />
        </mxCell>
        <mxCell id="eRM0PGZUXul2aLHy9KlM-19" style="edgeStyle=orthogonalEdgeStyle;rounded=0;orthogonalLoop=1;jettySize=auto;html=1;entryX=0.5;entryY=0;entryDx=0;entryDy=0;" parent="WIyWlLk6GJQsqaUBKTNV-1" source="eRM0PGZUXul2aLHy9KlM-7" target="eRM0PGZUXul2aLHy9KlM-9" edge="1">
          <mxGeometry relative="1" as="geometry" />
        </mxCell>
        <mxCell id="eRM0PGZUXul2aLHy9KlM-20" style="edgeStyle=orthogonalEdgeStyle;rounded=0;orthogonalLoop=1;jettySize=auto;html=1;entryX=0.5;entryY=1;entryDx=0;entryDy=0;" parent="WIyWlLk6GJQsqaUBKTNV-1" source="eRM0PGZUXul2aLHy9KlM-7" target="eRM0PGZUXul2aLHy9KlM-6" edge="1">
          <mxGeometry relative="1" as="geometry" />
        </mxCell>
        <mxCell id="eRM0PGZUXul2aLHy9KlM-7" value="Block update on ethereum" style="rhombus;whiteSpace=wrap;html=1;" parent="WIyWlLk6GJQsqaUBKTNV-1" vertex="1">
          <mxGeometry x="647.5" y="610" width="110" height="100" as="geometry" />
        </mxCell>
        <mxCell id="eRM0PGZUXul2aLHy9KlM-9" value="Transaction updated and completed" style="rounded=1;whiteSpace=wrap;html=1;" parent="WIyWlLk6GJQsqaUBKTNV-1" vertex="1">
          <mxGeometry x="642.5" y="760" width="120" height="60" as="geometry" />
        </mxCell>
      </root>
    </mxGraphModel>
  </diagram>
</mxfile>
